<?xml version="1.0" standalone="no"?>
<!DOCTYPE svg PUBLIC "-//W3C//DTD SVG 20010904//EN"
 "http://www.w3.org/TR/2001/REC-SVG-20010904/DTD/svg10.dtd">
<svg version="1.0" xmlns="http://www.w3.org/2000/svg"
 width="512.000000pt" height="512.000000pt" viewBox="0 0 512.000000 512.000000"
 preserveAspectRatio="xMidYMid meet">
<metadata>
Created by potrace 1.14, written by Peter Selinger 2001-2017
</metadata>
<g transform="translate(0.000000,512.000000) scale(0.100000,-0.100000)"
fill="#000000" stroke="none">
<path d="M811 4406 c-75 -22 -344 -343 -462 -553 -142 -251 -247 -522 -293
-753 -44 -222 -51 -299 -50 -550 0 -113 3 -232 7 -265 11 -87 17 -128 22 -155
3 -14 8 -41 11 -60 36 -203 134 -483 242 -690 134 -258 417 -625 510 -662 66
-26 147 0 182 57 47 77 30 135 -74 247 -217 234 -386 517 -485 815 -57 170
-85 294 -108 478 -10 77 -10 423 0 498 69 515 261 929 604 1299 94 100 106
141 68 222 -29 61 -105 92 -174 72z"/>
<path d="M4235 4410 c-42 -9 -73 -30 -95 -65 -48 -77 -33 -130 71 -243 295
-320 487 -702 569 -1126 46 -244 48 -551 5 -806 -72 -421 -273 -823 -578
-1157 -94 -103 -104 -127 -80 -206 23 -79 113 -120 194 -89 15 6 46 30 70 54
202 203 388 476 503 738 21 47 42 94 47 105 37 81 111 335 134 460 4 22 9 49
11 60 21 117 29 236 28 450 0 210 -7 284 -46 484 -75 390 -257 775 -515 1097
-167 206 -238 261 -318 244z"/>
<path d="M1362 3830 c-81 -36 -283 -300 -379 -495 -47 -96 -128 -324 -138
-389 -3 -21 -7 -41 -9 -45 -4 -6 -12 -67 -25 -191 -17 -153 -2 -355 43 -576
11 -56 82 -249 121 -331 90 -190 295 -467 379 -510 104 -54 219 20 218 140 -1
45 -12 65 -84 142 -322 348 -452 839 -347 1315 38 173 155 421 261 555 12 15
89 103 121 139 16 17 33 42 39 56 49 125 -77 245 -200 190z"/>
<path d="M3642 3834 c-59 -24 -93 -74 -94 -134 0 -52 14 -79 78 -149 516 -558
518 -1413 6 -1976 -67 -74 -72 -81 -80 -127 -22 -117 95 -207 205 -158 51 23
172 159 264 298 255 386 347 837 265 1298 -53 299 -210 613 -425 854 -89 99
-148 124 -219 94z"/>
<path d="M2392 3499 c-316 -54 -603 -293 -721 -599 -195 -506 78 -1076 596
-1245 43 -14 93 -28 112 -31 18 -3 43 -8 55 -10 33 -7 217 -6 261 1 353 60
636 289 758 615 50 132 72 334 52 465 -59 381 -345 696 -713 789 -102 25 -298
33 -400 15z m368 -318 c190 -60 359 -229 422 -421 29 -92 36 -263 13 -350 -20
-79 -67 -181 -108 -235 -81 -107 -208 -199 -326 -236 -298 -92 -599 23 -764
294 -64 105 -82 180 -81 337 0 119 4 143 26 202 38 100 85 174 158 247 108
109 245 176 383 187 40 4 73 7 74 8 9 7 149 -16 203 -33z"/>
</g>
</svg>
